<?xml version="1.0" standalone="no"?>
<!DOCTYPE svg PUBLIC "-//W3C//DTD SVG 20010904//EN"
 "http://www.w3.org/TR/2001/REC-SVG-20010904/DTD/svg10.dtd">
<svg version="1.0" xmlns="http://www.w3.org/2000/svg"
 width="998.000000pt" height="998.000000pt" viewBox="0 0 998.000000 998.000000"
 preserveAspectRatio="xMidYMid meet">
<metadata>
Created by potrace 1.14, written by Peter Selinger 2001-2017
</metadata>
<g transform="translate(0.000000,998.000000) scale(0.100000,-0.100000)"
fill="#000000" stroke="none">
<path d="M5022 9139 c-173 -34 -282 -185 -283 -390 0 -135 37 -239 114 -319
118 -122 331 -132 446 -20 l40 39 3 -47 3 -47 90 0 c50 0 104 1 122 3 l31 4
-3 96 c-2 54 -7 174 -10 267 -4 94 -8 215 -10 270 -2 55 -4 112 -4 127 l-1 28
-117 -5 c-65 -2 -120 -4 -123 -4 -3 -1 -4 -25 -3 -53 2 -52 2 -53 -15 -32 -56
67 -179 103 -280 83z m246 -252 c19 -18 38 -43 44 -57 16 -40 20 -114 9 -157
-37 -138 -220 -170 -298 -52 -25 38 -28 51 -28 124 0 74 3 85 28 118 32 42 58
58 107 67 50 9 100 -7 138 -43z"/>
<path d="M5968 9105 c-3 -3 -2 -23 2 -43 5 -20 11 -57 15 -82 3 -25 15 -97 25
-160 11 -63 22 -133 25 -155 4 -22 15 -96 26 -165 11 -69 23 -143 25 -165 6
-50 18 -62 69 -69 22 -3 51 -8 65 -11 172 -34 171 -34 184 -11 49 80 116 196
116 200 0 3 15 29 33 58 19 29 47 78 64 108 16 30 42 74 56 97 15 24 27 45 27
49 0 3 8 18 19 32 10 15 35 57 55 94 l37 67 -23 6 c-35 8 -233 44 -234 42 -1
-1 -56 -110 -124 -242 -125 -246 -145 -279 -146 -247 -1 15 -6 66 -19 172 -2
14 -6 54 -10 90 -4 36 -9 76 -11 90 -1 14 -6 59 -10 100 -6 71 -20 118 -30
107 -3 -3 -31 1 -62 8 -31 7 -75 15 -97 18 -22 3 -47 8 -56 12 -8 3 -18 3 -21
0z"/>
<path d="M4224 9012 c-52 -29 -82 -57 -118 -112 l-34 -52 -13 56 c-7 33 -18
56 -25 56 -14 0 -216 -51 -223 -56 -2 -2 4 -34 14 -71 9 -37 18 -75 20 -83 20
-95 150 -597 156 -604 5 -5 34 -2 71 9 35 10 68 18 73 19 32 7 81 19 86 22 4
2 -16 90 -42 196 -53 208 -58 255 -33 297 18 31 78 66 142 81 50 13 50 9 14
150 -29 114 -36 121 -88 92z"/>
<path d="M3210 8842 c-90 -48 -301 -157 -455 -237 -93 -49 -172 -90 -174 -92
-5 -4 54 -129 74 -156 13 -18 20 -16 129 41 l115 59 29 -56 c34 -64 107 -204
242 -466 51 -99 94 -181 95 -183 4 -4 175 83 199 101 21 15 33 -12 -224 482
-110 212 -122 236 -119 238 2 1 13 7 25 13 11 7 61 33 112 58 l91 47 -42 85
c-23 46 -46 84 -52 84 -6 0 -26 -8 -45 -18z"/>
<path d="M7287 8709 c-110 -26 -198 -103 -259 -227 -84 -173 -61 -342 62 -462
133 -129 341 -161 485 -75 53 32 109 86 98 95 -4 4 -58 28 -118 52 -110 45
-111 45 -143 28 -61 -33 -148 -5 -185 57 -19 33 -26 109 -11 123 5 4 119 -39
254 -95 135 -56 249 -100 253 -98 11 7 45 85 55 126 4 18 7 68 6 112 0 64 -5
91 -26 137 -30 65 -106 146 -164 176 -99 50 -221 70 -307 51z m198 -223 c50
-26 80 -82 71 -131 l-7 -34 -107 45 c-161 67 -162 68 -162 81 0 15 52 53 88
63 34 10 66 3 117 -24z"/>
<path d="M8234 8233 c-334 -506 -385 -583 -390 -597 -4 -10 24 -33 83 -72 48
-31 93 -61 99 -66 11 -8 99 123 508 743 42 64 76 120 76 125 0 8 -50 42 -162
112 l-37 23 -177 -268z"/>
<path d="M2260 7953 c-105 -27 -194 -89 -256 -179 -115 -167 -84 -368 79 -520
70 -65 119 -92 200 -108 233 -48 486 171 473 409 -3 48 -22 122 -35 137 -3 4
-22 -8 -42 -25 -20 -18 -63 -56 -96 -84 -51 -46 -59 -57 -55 -82 8 -57 -57
-134 -124 -147 -36 -7 -103 15 -124 41 -7 8 25 41 108 112 64 56 129 112 143
125 14 12 54 47 87 76 68 59 68 59 10 123 -100 110 -238 156 -368 122z m111
-220 c16 -10 29 -20 29 -24 0 -4 -49 -50 -109 -103 -114 -100 -121 -102 -135
-43 -28 116 115 229 215 170z"/>
<path d="M1309 7047 c-63 -83 -116 -154 -119 -157 -3 -3 -34 -43 -69 -88 -59
-78 -62 -85 -44 -97 10 -7 45 -34 77 -59 33 -25 62 -46 66 -46 3 0 48 57 100
126 84 111 95 123 101 102 7 -21 71 -290 100 -418 12 -53 16 -58 91 -114 75
-56 80 -58 93 -40 7 11 90 120 183 243 94 124 169 228 167 231 -7 12 -156 123
-159 119 -1 -2 -29 -40 -62 -84 -32 -44 -61 -82 -64 -85 -4 -3 -21 -27 -40
-53 l-34 -48 -12 48 c-17 72 -50 214 -78 342 -14 63 -29 117 -33 121 -15 13
-128 96 -139 103 -7 4 -56 -52 -125 -146z"/>
<path d="M5379 7046 c-2 -2 -47 -6 -99 -10 -52 -3 -106 -8 -120 -10 -14 -2
-47 -7 -73 -11 -27 -4 -59 -8 -70 -11 -12 -2 -38 -7 -57 -10 -80 -13 -293 -68
-403 -105 -462 -155 -873 -411 -1217 -758 -121 -121 -248 -272 -321 -376 -18
-27 -36 -52 -39 -55 -7 -7 -62 -90 -76 -115 -6 -11 -32 -55 -58 -99 -59 -98
-142 -271 -194 -401 -50 -127 -125 -366 -139 -445 -2 -14 -8 -41 -13 -60 -11
-43 -41 -220 -45 -269 -15 -158 -19 -236 -18 -366 0 -82 2 -174 3 -203 l3 -53
66 6 c68 6 120 11 194 20 23 3 67 7 97 10 30 3 72 8 92 11 l37 6 -2 146 c-1
134 9 347 18 375 2 7 6 35 9 62 3 28 7 57 10 65 3 8 8 33 11 55 3 22 18 86 32
142 l27 102 34 -61 c48 -87 76 -123 159 -205 93 -91 238 -197 418 -303 77 -46
177 -105 221 -131 l82 -48 93 25 c52 13 139 38 195 55 l101 31 -13 57 c-28
116 -9 197 51 226 19 9 75 17 135 20 86 4 111 10 151 31 100 55 143 154 194
449 44 255 57 278 273 473 107 97 142 150 149 226 6 66 -11 123 -66 216 -105
177 -108 192 -76 350 27 134 1 199 -132 326 l-65 62 41 7 c22 4 43 7 46 6 2 0
19 5 37 10 18 5 56 12 83 15 28 3 73 9 102 13 62 9 160 14 303 15 236 1 467
-31 691 -95 l66 -19 -7 -41 c-16 -89 3 -202 55 -316 75 -164 148 -238 314
-319 187 -91 233 -131 256 -222 l12 -45 84 74 c169 148 631 624 628 648 -1 8
-121 110 -217 183 -202 156 -453 304 -667 393 -49 21 -103 43 -120 50 -45 19
-241 82 -312 100 -165 42 -309 69 -433 81 -30 3 -66 8 -80 10 -29 6 -436 15
-441 10z"/>
<path d="M7645 6785 c-37 -10 -59 -24 -87 -55 -21 -23 -36 -45 -34 -49 2 -3 0
-15 -4 -26 -10 -28 8 -86 34 -110 12 -11 71 -58 130 -105 223 -175 472 -372
491 -388 11 -9 50 -41 88 -70 37 -30 67 -55 67 -57 0 -3 -52 -48 -395 -345
-71 -62 -148 -129 -170 -149 -22 -20 -69 -61 -105 -91 -35 -30 -78 -67 -95
-82 -16 -16 -33 -28 -38 -28 -4 0 -94 37 -200 82 -239 101 -251 102 -362 33
-155 -96 -153 -106 45 -212 41 -22 102 -55 135 -73 33 -19 90 -50 126 -69 116
-63 107 -46 114 -216 3 -82 8 -208 10 -279 3 -70 10 -137 16 -147 17 -32 59
-22 149 39 110 74 118 90 126 258 3 71 7 147 9 169 2 22 4 54 4 72 1 28 7 34
59 59 31 15 109 51 172 82 63 30 142 67 175 82 103 47 204 95 358 169 82 39
155 72 164 73 19 3 16 11 68 -227 34 -162 62 -288 156 -719 22 -104 48 -200
57 -212 44 -60 151 -61 222 -2 35 30 57 84 74 188 2 14 11 55 20 93 9 37 18
79 21 95 2 15 22 110 44 212 22 102 42 196 45 210 3 14 8 38 11 55 6 30 35
162 39 180 7 30 16 73 20 95 2 14 32 152 65 308 34 155 61 284 61 287 0 3 44
33 98 68 53 35 115 81 137 103 60 58 134 160 169 234 26 55 31 77 31 139 0 73
0 74 -39 107 -81 70 -277 71 -463 3 -54 -20 -187 -95 -225 -127 -15 -12 -36
-10 -170 23 -84 20 -160 38 -168 40 -8 2 -35 8 -60 15 -25 7 -52 14 -60 15 -8
2 -121 29 -250 60 -129 31 -242 58 -250 60 -8 2 -35 8 -60 15 -25 6 -63 15
-85 20 -22 5 -114 27 -205 50 -91 22 -178 43 -194 46 -16 3 -32 6 -35 8 -3 2
-28 -2 -56 -9z m2072 -290 c87 -37 112 -139 57 -233 -27 -45 -91 -122 -103
-122 -3 0 -7 24 -8 52 -5 93 -67 189 -160 248 -49 31 -46 36 26 55 64 18 145
18 188 0z"/>
<path d="M917 6259 c-203 -46 -347 -302 -288 -514 33 -119 150 -225 306 -276
22 -7 76 -13 121 -13 71 -1 88 3 146 32 111 54 195 163 226 292 17 70 8 170
-20 232 -24 52 -82 128 -98 128 -4 0 -30 -51 -59 -113 l-52 -112 16 -39 c22
-53 13 -95 -34 -148 -37 -41 -41 -43 -94 -43 -30 0 -59 4 -63 8 -5 4 -1 22 9
40 16 31 87 183 149 316 16 36 38 82 49 102 l19 39 -41 21 c-98 49 -206 67
-292 48z m84 -227 c15 -6 10 -22 -35 -118 -29 -61 -59 -122 -68 -135 l-15 -23
-26 29 c-32 36 -41 73 -32 125 15 87 107 150 176 122z"/>
<path d="M460 5095 c-157 -32 -260 -146 -294 -324 -8 -41 -13 -81 -11 -90 1
-9 6 -38 10 -66 25 -174 191 -302 401 -311 145 -6 255 46 331 157 60 88 90
225 72 326 -18 95 -92 202 -168 242 -25 14 -20 25 -54 -124 l-26 -110 26 -37
c21 -31 25 -46 21 -86 -5 -55 -37 -106 -77 -121 -36 -14 -90 -21 -95 -12 -3 4
13 86 35 182 23 96 42 181 44 189 2 8 11 46 20 83 8 37 13 72 10 77 -6 10
-104 32 -155 35 -19 1 -60 -3 -90 -10z m53 -255 c-2 -40 -53 -254 -63 -263
-11 -12 -90 68 -91 93 -1 11 -2 26 -3 33 -4 25 24 100 45 123 23 25 71 44 99
40 9 -1 14 -11 13 -26z"/>
<path d="M6535 5038 c-198 -152 -389 -284 -603 -415 -57 -35 -105 -63 -106
-63 -2 0 -48 -25 -102 -56 -122 -69 -434 -225 -569 -283 -55 -24 -118 -51
-140 -61 -176 -78 -702 -258 -890 -306 -5 -1 -64 -16 -130 -34 -66 -17 -131
-33 -145 -36 -14 -3 -43 -10 -65 -16 -22 -5 -47 -11 -55 -13 -8 -2 -82 -17
-165 -34 -82 -16 -163 -32 -180 -35 -16 -2 -75 -12 -130 -21 -171 -28 -184
-30 -360 -50 -33 -4 -73 -9 -90 -11 -16 -2 -52 -6 -80 -9 -260 -31 -523 -38
-590 -16 -127 42 -159 128 -101 271 l26 65 -35 -36 c-66 -71 -133 -168 -150
-219 -18 -56 -21 -145 -6 -198 5 -18 10 -36 11 -40 1 -4 9 -25 19 -47 87 -191
409 -324 896 -370 28 -2 86 -8 130 -12 161 -16 705 -9 925 12 19 2 67 6 105 9
39 4 81 9 95 11 14 2 52 6 85 10 68 7 300 43 385 60 59 12 76 15 102 20 86 16
414 104 547 147 148 47 416 149 526 198 28 12 66 29 85 37 105 45 658 312 715
345 11 7 166 86 345 176 179 90 334 170 345 177 20 12 20 22 19 326 -1 173 -2
318 -3 322 0 5 -54 33 -118 63 -65 30 -125 58 -134 63 -17 10 -263 116 -301
130 -19 7 -38 -3 -113 -61z"/>
<path d="M8540 4321 c-99 -64 -555 -332 -695 -408 -142 -78 -400 -207 -540
-271 -124 -56 -324 -142 -331 -142 -2 0 -23 -9 -47 -19 -47 -22 -236 -94 -309
-118 -43 -14 -48 -19 -48 -45 0 -94 66 -207 156 -266 62 -42 109 -54 219 -57
50 -1 102 -8 118 -15 49 -24 78 -94 112 -270 3 -14 7 -34 9 -46 5 -26 17 -116
22 -169 5 -61 5 -327 -1 -354 -4 -22 -13 -115 -20 -204 -1 -21 -4 -39 -6 -41
-2 -1 -22 -16 -44 -32 -22 -16 -42 -32 -45 -35 -6 -8 -226 -151 -261 -170
-306 -165 -584 -263 -859 -305 -19 -3 -46 -7 -60 -10 -14 -2 -52 -6 -85 -9
-33 -4 -80 -8 -105 -11 -127 -12 -511 3 -542 22 -19 12 19 151 60 224 23 42
45 66 165 179 58 55 76 105 56 153 -7 18 -46 65 -85 104 -97 95 -130 164 -127
265 3 79 24 119 145 282 301 401 323 434 334 501 6 43 2 44 -96 20 -36 -9 -74
-17 -85 -20 -65 -13 -283 -57 -300 -60 -198 -34 -256 -44 -290 -48 -22 -2 -90
-12 -151 -20 -61 -9 -131 -18 -155 -21 -24 -2 -62 -7 -84 -9 -22 -3 -74 -8
-115 -11 -41 -3 -88 -8 -105 -10 -16 -2 -86 -7 -155 -11 -185 -10 -230 -12
-284 -13 l-49 -1 6 -122 c6 -154 35 -251 106 -359 102 -156 216 -236 476 -337
119 -46 170 -144 115 -222 -33 -46 -35 -80 -7 -121 13 -20 44 -69 67 -110 24
-41 50 -84 58 -96 l14 -23 -53 19 c-113 39 -413 184 -449 216 -9 8 -19 15 -23
15 -8 0 -130 84 -219 151 -295 225 -559 542 -733 882 -59 114 -61 117 -95 118
-66 2 -276 18 -325 24 -16 2 -55 7 -86 10 -31 3 -66 8 -78 10 -11 2 -21 2 -21
-1 0 -22 98 -248 165 -379 241 -477 604 -886 1050 -1181 222 -148 458 -265
695 -346 96 -33 273 -85 310 -91 14 -3 59 -12 100 -20 41 -9 95 -18 120 -22
25 -3 52 -8 60 -10 8 -2 51 -7 95 -11 44 -4 94 -8 110 -10 45 -6 403 -5 455 0
25 3 77 8 115 11 39 3 77 8 85 10 8 2 33 7 55 10 53 7 75 11 165 31 14 3 38 8
53 10 16 3 77 19 135 35 983 274 1785 1040 2107 2012 34 104 70 232 79 277 2
14 9 45 14 70 6 25 13 61 16 80 3 19 8 44 10 55 2 12 7 48 11 80 4 33 9 68 11
79 7 41 17 237 17 341 0 131 -18 421 -27 432 -1 1 -35 -20 -76 -46z"/>
<path d="M96 3912 c-7 -11 9 -82 29 -127 9 -21 35 -56 57 -77 l40 -38 -61 0
c-56 0 -61 -2 -62 -22 0 -13 -1 -67 -3 -120 l-3 -98 26 -1 c63 -3 256 -8 502
-13 l266 -5 2 122 1 122 -139 3 c-313 6 -336 10 -373 70 -16 26 -21 51 -22
108 -1 41 -5 74 -11 75 -49 6 -245 7 -249 1z"/>
<path d="M640 2984 c-102 -40 -159 -101 -175 -187 l-7 -38 -37 39 c-114 122
-325 80 -393 -77 -30 -70 -28 -156 6 -304 8 -36 17 -76 20 -88 25 -127 50
-238 56 -255 8 -21 9 -21 157 13 81 19 159 36 173 38 14 2 99 20 190 40 91 20
172 38 180 40 8 2 71 15 139 29 68 15 127 28 131 31 4 2 -4 50 -17 107 -13 57
-26 119 -29 138 -3 19 -8 38 -10 41 -2 3 -6 21 -9 40 -36 212 -94 327 -189
376 -31 16 -158 28 -186 17z m123 -272 c11 -9 24 -28 29 -42 11 -30 48 -204
43 -208 -1 -2 -15 -5 -31 -8 -16 -3 -33 -7 -39 -8 -84 -20 -128 -27 -132 -22
-10 10 -42 161 -43 199 0 49 13 73 53 98 37 22 90 19 120 -9z m-380 -107 c29
-29 57 -126 61 -209 1 -20 -7 -23 -94 -41 -14 -2 -40 -9 -58 -14 -24 -7 -34
-7 -37 2 -22 70 -36 142 -40 197 -2 16 9 36 30 57 43 43 99 46 138 8z"/>
</g>
</svg>
