<?xml version="1.0" encoding="utf-8"?>
<!-- Generator: Adobe Illustrator 23.0.0, SVG Export Plug-In . SVG Version: 6.00 Build 0)  -->
<svg version="1.1" id="Layer_1" xmlns="http://www.w3.org/2000/svg" xmlns:xlink="http://www.w3.org/1999/xlink" x="0px" y="0px"
	 viewBox="0 0 546.2 75.8" style="enable-background:new 0 0 546.2 75.8;" xml:space="preserve">
<style type="text/css">
	.st0{clip-path:url(#SVGID_2_);fill:#FFF3F3;}
	.st1{clip-path:url(#SVGID_2_);fill:#FFFFFF;}
	.st2{fill:#FFFFFF;}
</style>
<g>
	<defs>
		<rect id="SVGID_1_" width="99.8" height="75.8"/>
	</defs>
	<clipPath id="SVGID_2_">
		<use xlink:href="#SVGID_1_"  style="overflow:visible;"/>
	</clipPath>
	<path class="st0" d="M13.2,40.3c-0.1-0.8-0.1-1.6-0.1-2.4c0-3.2,0.5-6.4,1.4-9.3c1.2,3.4,5.5,6,8.5,7.7c0.9,0.5,1.8,1,2.6,1.5
		c1.6-0.4,3.2-0.9,4.7-1.4C30,35.6,29.8,34.5,30,34c0.4-1.4,1.8-1.1,3-1.2c4.1-0.4,2.8-7,4.7-9.5c1.3-1.8,4-2.9,4.1-5.2
		c0-1.9-2-3.3-2-5.1c0-0.2,0-0.4,0-0.6c0.1-0.7,0.4-1.4,0.3-2.1c-0.1-1.4-1.4-2.5-2.6-3.5C40,6.3,42.4,6,44.9,6
		c3.3,0,6.4,0.5,9.4,1.4c-0.8,2.3,1,6.3,3,7.6c1.5,1,3.7,1.4,4.4,3c0.1,0.3,0.2,0.6,0.2,0.9c2.8-2.4,5.4-5,7.9-7.8
		c0.4-0.4,0.6-0.7,0.8-0.9C64,3.9,54.9,0,44.9,0C24.1,0,7.1,17,7.1,37.9c0,1,0,2,0.1,3C9.2,40.8,11.2,40.6,13.2,40.3z"/>
	<path class="st0" d="M78,35.4c-0.3,0.2-0.5,0.3-0.6,0.3c-6.2,3.8-12.9,6.9-19.8,9.4c0,0.3,0,0.6,0,0.9c0.3,1.8,2,3.3,3.8,3.3
		c0.8,0,1.8-0.2,2.4,0.4c0.4,0.3,0.6,0.8,0.7,1.3c0.9,3.2,1.1,6.5,0.7,9.7c-0.1,0.7-0.2,1.3-0.1,2c-5.5,4.5-12.5,7.1-20.1,7.1
		c-1.5,0-3-0.1-4.5-0.3c0-0.3,0-0.5,0.1-0.8c0.2-1.3,0.9-2.6,1.9-3.4c0.7-0.6,1.6-1.1,1.6-2c0-1-1-1.6-1.6-2.2
		c-1.3-1.3-1.5-3.5-0.3-4.9c1.5-1.8,2.9-3.8,4.2-5.7c0.5-0.7,1-1.4,0.9-2.2c0,0,0,0,0,0c-6,1.4-12.1,2.4-18.3,2.8
		c-1.5,0.1-2.9,0.2-4.4,0.2c-0.1,1.3,0,2.7,0.4,3.9c0.8,2.6,3.1,4.6,5.7,5.6c0.7,0.2,1.4,0.4,2,0.9c0.6,0.4,1,1.2,0.7,1.9
		c-0.2,0.4-0.5,0.7-0.5,1.2c0,0.3,0.2,0.6,0.3,0.8c0.3,0.4,0.9,1.5,1.6,2.7c-8.4-2.9-15.2-9.1-18.8-17.1c-1-0.1-2-0.1-3-0.2l-0.1,0
		c-1-0.1-2.2-0.2-3.5-0.4C14.4,65.2,28.5,75.8,45,75.8c20.9,0,37.8-17,37.8-37.9c0-1.8-0.1-3.5-0.4-5.3C81.6,33.3,80.2,34.1,78,35.4
		z"/>
	<path class="st1" d="M58.3,23.7c-0.4-0.2-15.5,14.6-45.6,18.2c-1.8,0.2-7.2,0.8-8.7,0.5c-1.7-0.3-3.1-1.3-1.4-4.3
		c-1.1,1.3-2.5,2.4-2.5,4.4c-0.1,5.8,8.8,6.5,13,6.9c5.2,0.5,12.7,0,17.8-0.9c12.6-2.2,19.2-6.2,34.3-13.8c0,0,0-4.4,0-7.8
		C65.2,26.8,62.4,25.4,58.3,23.7z"/>
	<path class="st1" d="M95.2,11.2c0.4-3-2.6-4.2-2.6-4.2s3-1.4,4.1,0.3C97.9,9.2,95.2,11.2,95.2,11.2z M98.7,6.2
		c-1.1-1.7-5.5-0.9-7.1,0.2l-1.8,1.1L71.7,3.2C71.2,3,70.6,3.1,70,3.4c-1.1,0.7-1.3,2-0.5,2.7l9.5,7.5l-9.8,8.6l-4.6-2
		c-0.5-0.2-1.2-0.2-1.7,0.1l-1.6,1c-0.4,0.2-0.4,0.8,0,1l6,3.3l0.3,6.8c0,0.5,0.5,0.7,0.9,0.5l1.6-1c0.5-0.3,0.8-0.9,0.8-1.4
		l0.2-4.6l11.5-5.4l3,13.8c0.3,1,1.6,1.4,2.6,0.8c0.5-0.3,0.9-0.8,0.9-1.4l4.2-20l1.8-1.1C97.1,11.5,99.8,7.9,98.7,6.2z"/>
</g>
<g>
	<path class="st2" d="M149.6,42.3c1.6,2.1,2.4,4.5,2.4,7.1c0,3.9-1.4,6.9-4.1,9.2c-2.7,2.3-6.5,3.4-11.3,3.4h-21.5V15.8H136
		c4.7,0,8.4,1.1,11,3.2c2.7,2.2,4,5.1,4,8.8c0,2.7-0.7,5-2.1,6.8c-1.4,1.8-3.3,3.1-5.7,3.8C145.9,38.9,148,40.2,149.6,42.3z
		 M126.4,34.5h7.4c1.8,0,3.3-0.4,4.2-1.2c1-0.8,1.5-2,1.5-3.6s-0.5-2.8-1.5-3.6c-1-0.8-2.4-1.3-4.2-1.3h-7.4V34.5z M139.1,51.7
		c1-0.9,1.5-2.1,1.5-3.7c0-1.6-0.5-2.9-1.6-3.8c-1.1-0.9-2.6-1.4-4.4-1.4h-8.2v10.2h8.3C136.6,52.9,138.1,52.5,139.1,51.7z"/>
	<path class="st2" d="M174.8,26.6c2-1.2,4.2-1.7,6.6-1.7v11.9h-3.1c-2.8,0-4.9,0.6-6.3,1.8c-1.4,1.2-2.1,3.3-2.1,6.4V62h-11.3V25.3
		h11.3v6.1C171.2,29.4,172.8,27.8,174.8,26.6z"/>
	<path class="st2" d="M221.3,46.3h-25.5c0.2,2.3,0.9,4,2.2,5.2c1.3,1.2,2.9,1.8,4.8,1.8c2.8,0,4.8-1.2,5.9-3.6h12
		c-0.6,2.4-1.7,4.6-3.3,6.5c-1.6,1.9-3.6,3.4-6,4.5c-2.4,1.1-5.1,1.6-8.1,1.6c-3.6,0-6.8-0.8-9.6-2.3c-2.8-1.5-5-3.7-6.6-6.6
		c-1.6-2.9-2.4-6.2-2.4-10c0-3.8,0.8-7.2,2.3-10c1.6-2.9,3.7-5.1,6.6-6.6c2.8-1.5,6-2.3,9.7-2.3c3.6,0,6.7,0.7,9.5,2.2
		c2.8,1.5,4.9,3.6,6.5,6.4c1.6,2.8,2.3,6,2.3,9.7C221.5,44.1,221.4,45.2,221.3,46.3z M209.9,40.1c0-1.9-0.7-3.5-2-4.6
		c-1.3-1.1-3-1.7-4.9-1.7c-1.9,0-3.5,0.5-4.8,1.6c-1.3,1.1-2.1,2.7-2.4,4.7H209.9z"/>
	<path class="st2" d="M261.8,46.3h-25.5c0.2,2.3,0.9,4,2.2,5.2c1.3,1.2,2.9,1.8,4.8,1.8c2.8,0,4.8-1.2,5.9-3.6h12
		c-0.6,2.4-1.7,4.6-3.3,6.5c-1.6,1.9-3.6,3.4-6,4.5c-2.4,1.1-5.1,1.6-8.1,1.6c-3.6,0-6.8-0.8-9.6-2.3c-2.8-1.5-5-3.7-6.6-6.6
		c-1.6-2.9-2.4-6.2-2.4-10c0-3.8,0.8-7.2,2.3-10c1.6-2.9,3.7-5.1,6.6-6.6c2.8-1.5,6-2.3,9.7-2.3c3.6,0,6.7,0.7,9.5,2.2
		c2.8,1.5,4.9,3.6,6.5,6.4c1.6,2.8,2.3,6,2.3,9.7C262,44.1,262,45.2,261.8,46.3z M250.5,40.1c0-1.9-0.7-3.5-2-4.6
		c-1.3-1.1-3-1.7-4.9-1.7c-1.9,0-3.5,0.5-4.8,1.6c-1.3,1.1-2.1,2.7-2.4,4.7H250.5z"/>
	<path class="st2" d="M278.5,52.7h15.9V62h-28.5v-9l15.3-18.5h-15.2v-9.3h28.1v9L278.5,52.7z"/>
	<path class="st2" d="M335.1,46.3h-25.5c0.2,2.3,0.9,4,2.2,5.2c1.3,1.2,2.9,1.8,4.8,1.8c2.8,0,4.8-1.2,5.9-3.6h12
		c-0.6,2.4-1.7,4.6-3.3,6.5c-1.6,1.9-3.6,3.4-6,4.5c-2.4,1.1-5.1,1.6-8.1,1.6c-3.6,0-6.8-0.8-9.6-2.3c-2.8-1.5-5-3.7-6.6-6.6
		c-1.6-2.9-2.4-6.2-2.4-10c0-3.8,0.8-7.2,2.3-10c1.6-2.9,3.7-5.1,6.6-6.6c2.8-1.5,6-2.3,9.7-2.3c3.6,0,6.7,0.7,9.5,2.2
		c2.8,1.5,4.9,3.6,6.5,6.4c1.6,2.8,2.3,6,2.3,9.7C335.3,44.1,335.2,45.2,335.1,46.3z M323.8,40.1c0-1.9-0.7-3.5-2-4.6
		c-1.3-1.1-3-1.7-4.9-1.7c-1.9,0-3.5,0.5-4.8,1.6c-1.3,1.1-2.1,2.7-2.4,4.7H323.8z"/>
	<path class="st2" d="M374.5,15.8v9h-12.3V62H351V24.8h-12.3v-9H374.5z"/>
	<path class="st2" d="M396.4,26.6c2-1.2,4.2-1.7,6.6-1.7v11.9h-3.1c-2.8,0-4.9,0.6-6.3,1.8c-1.4,1.2-2.1,3.3-2.1,6.4V62h-11.3V25.3
		h11.3v6.1C392.7,29.4,394.4,27.8,396.4,26.6z"/>
	<path class="st2" d="M408.3,33.6c1.4-2.9,3.4-5.1,5.8-6.6c2.5-1.5,5.2-2.3,8.2-2.3c2.6,0,4.9,0.5,6.8,1.6c2,1.1,3.5,2.4,4.5,4.1
		v-5.2h11.3V62h-11.3v-5.2c-1.1,1.7-2.6,3.1-4.6,4.2c-2,1.1-4.2,1.6-6.8,1.6c-3,0-5.7-0.8-8.2-2.3c-2.5-1.6-4.4-3.8-5.8-6.7
		c-1.4-2.9-2.1-6.2-2.1-10C406.1,39.8,406.8,36.5,408.3,33.6z M431.3,37c-1.6-1.6-3.5-2.4-5.7-2.4c-2.2,0-4.1,0.8-5.7,2.4
		c-1.6,1.6-2.3,3.8-2.3,6.6c0,2.8,0.8,5,2.3,6.7c1.6,1.6,3.5,2.5,5.7,2.5c2.2,0,4.1-0.8,5.7-2.4c1.6-1.6,2.3-3.8,2.3-6.7
		C433.7,40.8,432.9,38.6,431.3,37z"/>
	<path class="st2" d="M469.6,51.5l8-26.2h12l-13,36.8h-13.9l-13-36.8h12.1L469.6,51.5z"/>
	<path class="st2" d="M528.8,46.3h-25.5c0.2,2.3,0.9,4,2.2,5.2c1.3,1.2,2.9,1.8,4.8,1.8c2.8,0,4.8-1.2,5.9-3.6h12
		c-0.6,2.4-1.7,4.6-3.3,6.5s-3.6,3.4-6,4.5c-2.4,1.1-5.1,1.6-8.1,1.6c-3.6,0-6.8-0.8-9.6-2.3c-2.8-1.5-5-3.7-6.6-6.6
		c-1.6-2.9-2.4-6.2-2.4-10c0-3.8,0.8-7.2,2.3-10c1.6-2.9,3.7-5.1,6.6-6.6c2.8-1.5,6-2.3,9.7-2.3c3.6,0,6.7,0.7,9.5,2.2
		c2.8,1.5,4.9,3.6,6.5,6.4c1.6,2.8,2.3,6,2.3,9.7C529,44.1,528.9,45.2,528.8,46.3z M517.5,40.1c0-1.9-0.7-3.5-2-4.6
		c-1.3-1.1-3-1.7-4.9-1.7c-1.9,0-3.5,0.5-4.8,1.6c-1.3,1.1-2.1,2.7-2.4,4.7H517.5z"/>
	<path class="st2" d="M546.2,13.3V62h-11.3V13.3H546.2z"/>
</g>
</svg>
