<?xml version="1.0" encoding="utf-8"?>
<!-- Generator: Adobe Illustrator 23.0.0, SVG Export Plug-In . SVG Version: 6.00 Build 0)  -->
<svg version="1.1" id="Layer_1" xmlns="http://www.w3.org/2000/svg" xmlns:xlink="http://www.w3.org/1999/xlink" x="0px" y="0px"
	 viewBox="0 0 40.9 53.3" style="enable-background:new 0 0 40.9 53.3;" xml:space="preserve">
<style type="text/css">
	.st0{fill:none;stroke:#FFFFFF;stroke-width:2;stroke-linecap:round;stroke-linejoin:round;}
</style>
<g transform="matrix( 1, 0, 0, 1, 11,0) ">
	<g>
		<path id="Layer0_2_1_STROKES" class="st0" d="M9.4,22.4v30"/>
	</g>
</g>
<g transform="matrix( 1, 0, 0, 1, 11,0) ">
	<g>
		<path id="Layer0_2_MEMBER_0_1_STROKES" class="st0" d="M14.2,29.3c0-9.5,4.9-14.4,14.7-14.6C28.6,24.5,23.7,29.3,14.2,29.3z
			 M14.2,46.7c0-9.5,4.9-14.4,14.7-14.6C28.6,41.8,23.7,46.7,14.2,46.7z M9.7,21.7C3,15,3,8.1,9.8,1C16.5,8,16.4,14.9,9.7,21.7z
			 M4.7,29.3C4.7,19.8-0.2,15-10,14.8C-9.7,24.5-4.8,29.3,4.7,29.3z M4.7,46.7c0-9.5-4.9-14.4-14.7-14.6
			C-9.7,41.8-4.8,46.7,4.7,46.7z"/>
	</g>
</g>
</svg>
